<svg xmlns="http://www.w3.org/2000/svg" viewBox="0 0 1200 840" width="1200" height="840" preserveAspectRatio="xMidYMid meet" role="img">
<rect width="1200" height="840" fill="#f2efe7"/>
<text x="272.68" y="102" font-family="Helvetica, Arial, sans-serif" font-size="11" font-weight="400" letter-spacing="2" fill="#9aa1a9" text-anchor="start">RESIDENCE LEVEL</text>
<g opacity="0.7"><line x1="272.68" y1="616.14" x2="286.68" y2="630.14" stroke="#9aa1a9" stroke-width="1"/><line x1="272.68" y1="602.14" x2="300.68" y2="630.14" stroke="#9aa1a9" stroke-width="1"/><line x1="272.68" y1="588.14" x2="314.68" y2="630.14" stroke="#9aa1a9" stroke-width="1"/><line x1="272.68" y1="574.14" x2="328.68" y2="630.14" stroke="#9aa1a9" stroke-width="1"/><line x1="272.68" y1="560.14" x2="342.68" y2="630.14" stroke="#9aa1a9" stroke-width="1"/><line x1="272.68" y1="546.14" x2="356.68" y2="630.14" stroke="#9aa1a9" stroke-width="1"/><line x1="280.89" y1="540.34" x2="370.68" y2="630.14" stroke="#9aa1a9" stroke-width="1"/><line x1="294.89" y1="540.34" x2="384.68" y2="630.14" stroke="#9aa1a9" stroke-width="1"/><line x1="308.89" y1="540.34" x2="398.68" y2="630.14" stroke="#9aa1a9" stroke-width="1"/><line x1="322.89" y1="540.34" x2="412.68" y2="630.14" stroke="#9aa1a9" stroke-width="1"/><line x1="336.89" y1="540.34" x2="426.68" y2="630.14" stroke="#9aa1a9" stroke-width="1"/><line x1="350.89" y1="540.34" x2="440.68" y2="630.14" stroke="#9aa1a9" stroke-width="1"/><line x1="364.89" y1="540.34" x2="454.68" y2="630.14" stroke="#9aa1a9" stroke-width="1"/><line x1="378.89" y1="540.34" x2="468.68" y2="630.14" stroke="#9aa1a9" stroke-width="1"/><line x1="392.89" y1="540.34" x2="482.68" y2="630.14" stroke="#9aa1a9" stroke-width="1"/><line x1="406.89" y1="540.34" x2="496.68" y2="630.14" stroke="#9aa1a9" stroke-width="1"/><line x1="420.89" y1="540.34" x2="510.68" y2="630.14" stroke="#9aa1a9" stroke-width="1"/><line x1="434.89" y1="540.34" x2="524.68" y2="630.14" stroke="#9aa1a9" stroke-width="1"/><line x1="448.89" y1="540.34" x2="538.68" y2="630.14" stroke="#9aa1a9" stroke-width="1"/><line x1="462.89" y1="540.34" x2="552.68" y2="630.14" stroke="#9aa1a9" stroke-width="1"/><line x1="476.89" y1="540.34" x2="566.68" y2="630.14" stroke="#9aa1a9" stroke-width="1"/><line x1="490.89" y1="540.34" x2="580.68" y2="630.14" stroke="#9aa1a9" stroke-width="1"/><line x1="504.89" y1="540.34" x2="594.68" y2="630.14" stroke="#9aa1a9" stroke-width="1"/><line x1="518.89" y1="540.34" x2="608.68" y2="630.14" stroke="#9aa1a9" stroke-width="1"/><line x1="532.89" y1="540.34" x2="622.68" y2="630.14" stroke="#9aa1a9" stroke-width="1"/><line x1="546.89" y1="540.34" x2="636.68" y2="630.14" stroke="#9aa1a9" stroke-width="1"/><line x1="560.89" y1="540.34" x2="650.68" y2="630.14" stroke="#9aa1a9" stroke-width="1"/><line x1="574.89" y1="540.34" x2="664.68" y2="630.14" stroke="#9aa1a9" stroke-width="1"/><line x1="588.89" y1="540.34" x2="678.68" y2="630.14" stroke="#9aa1a9" stroke-width="1"/><line x1="602.89" y1="540.34" x2="692.68" y2="630.14" stroke="#9aa1a9" stroke-width="1"/><line x1="616.89" y1="540.34" x2="706.68" y2="630.14" stroke="#9aa1a9" stroke-width="1"/><line x1="630.89" y1="540.34" x2="720.68" y2="630.14" stroke="#9aa1a9" stroke-width="1"/><line x1="644.89" y1="540.34" x2="734.68" y2="630.14" stroke="#9aa1a9" stroke-width="1"/><line x1="658.89" y1="540.34" x2="748.68" y2="630.14" stroke="#9aa1a9" stroke-width="1"/><line x1="672.89" y1="540.34" x2="762.68" y2="630.14" stroke="#9aa1a9" stroke-width="1"/><line x1="686.89" y1="540.34" x2="776.68" y2="630.14" stroke="#9aa1a9" stroke-width="1"/><line x1="700.89" y1="540.34" x2="790.68" y2="630.14" stroke="#9aa1a9" stroke-width="1"/><line x1="714.89" y1="540.34" x2="804.68" y2="630.14" stroke="#9aa1a9" stroke-width="1"/><line x1="728.89" y1="540.34" x2="818.68" y2="630.14" stroke="#9aa1a9" stroke-width="1"/><line x1="742.89" y1="540.34" x2="832.68" y2="630.14" stroke="#9aa1a9" stroke-width="1"/><line x1="756.89" y1="540.34" x2="846.68" y2="630.14" stroke="#9aa1a9" stroke-width="1"/><line x1="770.89" y1="540.34" x2="860.68" y2="630.14" stroke="#9aa1a9" stroke-width="1"/><line x1="784.89" y1="540.34" x2="874.68" y2="630.14" stroke="#9aa1a9" stroke-width="1"/><line x1="798.89" y1="540.34" x2="888.68" y2="630.14" stroke="#9aa1a9" stroke-width="1"/><line x1="812.89" y1="540.34" x2="902.68" y2="630.14" stroke="#9aa1a9" stroke-width="1"/><line x1="826.89" y1="540.34" x2="916.68" y2="630.14" stroke="#9aa1a9" stroke-width="1"/><line x1="840.89" y1="540.34" x2="927.32" y2="626.77" stroke="#9aa1a9" stroke-width="1"/><line x1="854.89" y1="540.34" x2="927.32" y2="612.77" stroke="#9aa1a9" stroke-width="1"/><line x1="868.89" y1="540.34" x2="927.32" y2="598.77" stroke="#9aa1a9" stroke-width="1"/><line x1="882.89" y1="540.34" x2="927.32" y2="584.77" stroke="#9aa1a9" stroke-width="1"/><line x1="896.89" y1="540.34" x2="927.32" y2="570.77" stroke="#9aa1a9" stroke-width="1"/><line x1="910.89" y1="540.34" x2="927.32" y2="556.77" stroke="#9aa1a9" stroke-width="1"/><line x1="924.89" y1="540.34" x2="927.32" y2="542.77" stroke="#9aa1a9" stroke-width="1"/></g>
<rect x="272.68" y="540.34" width="654.63" height="89.79" fill="none" stroke="#9aa1a9" stroke-width="1.4" stroke-dasharray="7 5"/>
<rect x="504" y="572.24" width="192" height="26" fill="#f2efe7"/>
<text x="600" y="590.24" font-family="Helvetica, Arial, sans-serif" font-size="13" font-weight="400" letter-spacing="0" fill="#1f2a36" text-anchor="middle">Terrace · 19 m²</text>
<rect x="272.68" y="118" width="654.63" height="422.34" fill="#f2efe7"/>
<rect x="279.68" y="125" width="270.49" height="408.34" fill="none" stroke="#1f2a36" stroke-width="1.6"/>
<text x="414.93" y="327.17" font-family="Helvetica, Arial, sans-serif" font-size="12" font-weight="400" letter-spacing="0" fill="#1f2a36" text-anchor="middle">Living &amp; kitchen</text>
<text x="414.93" y="345.17" font-family="Helvetica, Arial, sans-serif" font-size="11" font-weight="400" letter-spacing="0" fill="#9aa1a9" text-anchor="middle">43 m²</text>
<rect x="550.17" y="125" width="216.98" height="227.73" fill="none" stroke="#1f2a36" stroke-width="1.6"/>
<text x="658.66" y="236.86" font-family="Helvetica, Arial, sans-serif" font-size="12" font-weight="400" letter-spacing="0" fill="#1f2a36" text-anchor="middle">Main bedroom</text>
<text x="658.66" y="254.86" font-family="Helvetica, Arial, sans-serif" font-size="11" font-weight="400" letter-spacing="0" fill="#9aa1a9" text-anchor="middle">19 m²</text>
<rect x="767.15" y="125" width="153.16" height="227.73" fill="none" stroke="#1f2a36" stroke-width="1.6"/>
<text x="843.73" y="236.86" font-family="Helvetica, Arial, sans-serif" font-size="12" font-weight="400" letter-spacing="0" fill="#1f2a36" text-anchor="middle">Bedroom 2</text>
<text x="843.73" y="254.86" font-family="Helvetica, Arial, sans-serif" font-size="11" font-weight="400" letter-spacing="0" fill="#9aa1a9" text-anchor="middle">13 m²</text>
<rect x="550.17" y="352.73" width="96.56" height="180.61" fill="none" stroke="#1f2a36" stroke-width="1.6"/>
<text x="598.45" y="441.04" font-family="Helvetica, Arial, sans-serif" font-size="12" font-weight="400" letter-spacing="0" fill="#1f2a36" text-anchor="middle">Bath</text>
<text x="598.45" y="459.04" font-family="Helvetica, Arial, sans-serif" font-size="11" font-weight="400" letter-spacing="0" fill="#9aa1a9" text-anchor="middle">7 m²</text>
<rect x="646.73" y="352.73" width="96.56" height="180.61" fill="none" stroke="#1f2a36" stroke-width="1.6"/>
<text x="695.01" y="441.04" font-family="Helvetica, Arial, sans-serif" font-size="12" font-weight="400" letter-spacing="0" fill="#1f2a36" text-anchor="middle">Hall</text>
<text x="695.01" y="459.04" font-family="Helvetica, Arial, sans-serif" font-size="11" font-weight="400" letter-spacing="0" fill="#9aa1a9" text-anchor="middle">7 m²</text>
<rect x="743.29" y="352.73" width="88.51" height="131.36" fill="none" stroke="#1f2a36" stroke-width="1.6"/>
<text x="787.55" y="416.41" font-family="Helvetica, Arial, sans-serif" font-size="12" font-weight="400" letter-spacing="0" fill="#1f2a36" text-anchor="middle">Shower room</text>
<text x="787.55" y="434.41" font-family="Helvetica, Arial, sans-serif" font-size="11" font-weight="400" letter-spacing="0" fill="#9aa1a9" text-anchor="middle">4 m²</text>
<rect x="831.8" y="352.73" width="88.51" height="131.36" fill="none" stroke="#1f2a36" stroke-width="1.6"/>
<text x="876.06" y="416.41" font-family="Helvetica, Arial, sans-serif" font-size="12" font-weight="400" letter-spacing="0" fill="#1f2a36" text-anchor="middle">Store</text>
<text x="876.06" y="434.41" font-family="Helvetica, Arial, sans-serif" font-size="11" font-weight="400" letter-spacing="0" fill="#9aa1a9" text-anchor="middle">4 m²</text>
<rect x="743.29" y="484.09" width="177.02" height="49.26" fill="none" stroke="#1f2a36" stroke-width="1.6"/>
<text x="831.8" y="506.71" font-family="Helvetica, Arial, sans-serif" font-size="12" font-weight="400" letter-spacing="0" fill="#1f2a36" text-anchor="middle">Utility</text>
<text x="831.8" y="524.71" font-family="Helvetica, Arial, sans-serif" font-size="11" font-weight="400" letter-spacing="0" fill="#9aa1a9" text-anchor="middle">3 m²</text>
<rect x="272.68" y="118" width="654.63" height="422.34" fill="none" stroke="#1f2a36" stroke-width="7"/>
<rect x="379.06" y="535.84" width="135.29" height="9" fill="#f2efe7"/>
<line x1="379.06" y1="540.34" x2="514.35" y2="540.34" stroke="#1f2a36" stroke-width="1.4"/>
<rect x="532.35" y="535.84" width="135.29" height="9" fill="#f2efe7"/>
<line x1="532.35" y1="540.34" x2="667.65" y2="540.34" stroke="#1f2a36" stroke-width="1.4"/>
<rect x="685.65" y="535.84" width="135.29" height="9" fill="#f2efe7"/>
<line x1="685.65" y1="540.34" x2="820.94" y2="540.34" stroke="#1f2a36" stroke-width="1.4"/>
<text x="927.32" y="102" font-family="Helvetica, Arial, sans-serif" font-size="11" font-weight="400" letter-spacing="0" fill="#9aa1a9" text-anchor="end">101 m²</text>
<g stroke="#1f2a36" fill="none" stroke-width="1.6"><circle cx="1112" cy="78" r="20"/><path d="M 1112 90 L 1112 66 M 1107 73 L 1112 66 L 1117 73"/></g><text x="1112" y="116" font-family="Helvetica, Arial, sans-serif" font-size="12" font-weight="400" letter-spacing="1" fill="#1f2a36" text-anchor="middle">N</text>
<g stroke="#1f2a36" stroke-width="1.2"><line x1="886.57" y1="750" x2="1136" y2="750"/><line x1="886.57" y1="745" x2="886.57" y2="755"/><line x1="936.46" y1="745" x2="936.46" y2="755"/><line x1="986.34" y1="745" x2="986.34" y2="755"/><line x1="1036.23" y1="745" x2="1036.23" y2="755"/><line x1="1086.11" y1="745" x2="1086.11" y2="755"/><line x1="1136" y1="745" x2="1136" y2="755"/></g><text x="886.57" y="772" font-family="Helvetica, Arial, sans-serif" font-size="11" font-weight="400" letter-spacing="0" fill="#9aa1a9" text-anchor="start">0</text><text x="1136" y="772" font-family="Helvetica, Arial, sans-serif" font-size="11" font-weight="400" letter-spacing="0" fill="#9aa1a9" text-anchor="end">5 m</text>
<line x1="64" y1="706" x2="424" y2="706" stroke="#1f2a36" stroke-width="1"/><text x="64" y="732" font-family="Helvetica, Arial, sans-serif" font-size="13" font-weight="600" letter-spacing="2.4" fill="#1f2a36" text-anchor="start">AURELIA RESIDENCES</text><text x="64" y="754" font-family="Helvetica, Arial, sans-serif" font-size="13" font-weight="400" letter-spacing="0" fill="#1f2a36" text-anchor="start">No. 121 — Harbor residence</text><text x="64" y="774" font-family="Helvetica, Arial, sans-serif" font-size="12" font-weight="400" letter-spacing="0" fill="#9aa1a9" text-anchor="start">2 bedrooms · 101 m² inside · 19 m² terrace · Path block, first floor</text>
</svg>