<svg xmlns="http://www.w3.org/2000/svg" viewBox="0 0 1200 840" width="1200" height="840" preserveAspectRatio="xMidYMid meet" role="img">
<rect width="1200" height="840" fill="#f2efe7"/>
<text x="107.13" y="102" font-family="Helvetica, Arial, sans-serif" font-size="11" font-weight="400" letter-spacing="2" fill="#9aa1a9" text-anchor="start">GARDEN LEVEL</text>
<g opacity="0.7"><line x1="107.13" y1="621.41" x2="121.13" y2="635.41" stroke="#9aa1a9" stroke-width="1"/><line x1="107.13" y1="607.41" x2="135.13" y2="635.41" stroke="#9aa1a9" stroke-width="1"/><line x1="107.13" y1="593.41" x2="149.13" y2="635.41" stroke="#9aa1a9" stroke-width="1"/><line x1="107.13" y1="579.41" x2="163.13" y2="635.41" stroke="#9aa1a9" stroke-width="1"/><line x1="107.13" y1="565.41" x2="177.13" y2="635.41" stroke="#9aa1a9" stroke-width="1"/><line x1="107.13" y1="551.41" x2="191.13" y2="635.41" stroke="#9aa1a9" stroke-width="1"/><line x1="107.13" y1="537.41" x2="205.13" y2="635.41" stroke="#9aa1a9" stroke-width="1"/><line x1="107.13" y1="523.41" x2="219.13" y2="635.41" stroke="#9aa1a9" stroke-width="1"/><line x1="107.13" y1="509.41" x2="233.13" y2="635.41" stroke="#9aa1a9" stroke-width="1"/><line x1="108.82" y1="497.1" x2="247.13" y2="635.41" stroke="#9aa1a9" stroke-width="1"/><line x1="122.82" y1="497.1" x2="261.13" y2="635.41" stroke="#9aa1a9" stroke-width="1"/><line x1="136.82" y1="497.1" x2="275.13" y2="635.41" stroke="#9aa1a9" stroke-width="1"/><line x1="150.82" y1="497.1" x2="289.13" y2="635.41" stroke="#9aa1a9" stroke-width="1"/><line x1="164.82" y1="497.1" x2="303.13" y2="635.41" stroke="#9aa1a9" stroke-width="1"/><line x1="178.82" y1="497.1" x2="317.13" y2="635.41" stroke="#9aa1a9" stroke-width="1"/><line x1="192.82" y1="497.1" x2="331.13" y2="635.41" stroke="#9aa1a9" stroke-width="1"/><line x1="206.82" y1="497.1" x2="345.13" y2="635.41" stroke="#9aa1a9" stroke-width="1"/><line x1="220.82" y1="497.1" x2="359.13" y2="635.41" stroke="#9aa1a9" stroke-width="1"/><line x1="234.82" y1="497.1" x2="373.13" y2="635.41" stroke="#9aa1a9" stroke-width="1"/><line x1="248.82" y1="497.1" x2="387.13" y2="635.41" stroke="#9aa1a9" stroke-width="1"/><line x1="262.82" y1="497.1" x2="401.13" y2="635.41" stroke="#9aa1a9" stroke-width="1"/><line x1="276.82" y1="497.1" x2="415.13" y2="635.41" stroke="#9aa1a9" stroke-width="1"/><line x1="290.82" y1="497.1" x2="429.13" y2="635.41" stroke="#9aa1a9" stroke-width="1"/><line x1="304.82" y1="497.1" x2="443.13" y2="635.41" stroke="#9aa1a9" stroke-width="1"/><line x1="318.82" y1="497.1" x2="457.13" y2="635.41" stroke="#9aa1a9" stroke-width="1"/><line x1="332.82" y1="497.1" x2="471.13" y2="635.41" stroke="#9aa1a9" stroke-width="1"/><line x1="346.82" y1="497.1" x2="485.13" y2="635.41" stroke="#9aa1a9" stroke-width="1"/><line x1="360.82" y1="497.1" x2="499.13" y2="635.41" stroke="#9aa1a9" stroke-width="1"/><line x1="374.82" y1="497.1" x2="513.13" y2="635.41" stroke="#9aa1a9" stroke-width="1"/><line x1="388.82" y1="497.1" x2="527.13" y2="635.41" stroke="#9aa1a9" stroke-width="1"/><line x1="402.82" y1="497.1" x2="541.13" y2="635.41" stroke="#9aa1a9" stroke-width="1"/><line x1="416.82" y1="497.1" x2="555.13" y2="635.41" stroke="#9aa1a9" stroke-width="1"/><line x1="430.82" y1="497.1" x2="569.13" y2="635.41" stroke="#9aa1a9" stroke-width="1"/><line x1="444.82" y1="497.1" x2="583.13" y2="635.41" stroke="#9aa1a9" stroke-width="1"/><line x1="458.82" y1="497.1" x2="597.13" y2="635.41" stroke="#9aa1a9" stroke-width="1"/><line x1="472.82" y1="497.1" x2="611.13" y2="635.41" stroke="#9aa1a9" stroke-width="1"/><line x1="486.82" y1="497.1" x2="625.13" y2="635.41" stroke="#9aa1a9" stroke-width="1"/><line x1="500.82" y1="497.1" x2="639.13" y2="635.41" stroke="#9aa1a9" stroke-width="1"/><line x1="514.82" y1="497.1" x2="653.13" y2="635.41" stroke="#9aa1a9" stroke-width="1"/><line x1="528.82" y1="497.1" x2="667.13" y2="635.41" stroke="#9aa1a9" stroke-width="1"/><line x1="542.82" y1="497.1" x2="675.77" y2="630.05" stroke="#9aa1a9" stroke-width="1"/><line x1="556.82" y1="497.1" x2="675.77" y2="616.05" stroke="#9aa1a9" stroke-width="1"/><line x1="570.82" y1="497.1" x2="675.77" y2="602.05" stroke="#9aa1a9" stroke-width="1"/><line x1="584.82" y1="497.1" x2="675.77" y2="588.05" stroke="#9aa1a9" stroke-width="1"/><line x1="598.82" y1="497.1" x2="675.77" y2="574.05" stroke="#9aa1a9" stroke-width="1"/><line x1="612.82" y1="497.1" x2="675.77" y2="560.05" stroke="#9aa1a9" stroke-width="1"/><line x1="626.82" y1="497.1" x2="675.77" y2="546.05" stroke="#9aa1a9" stroke-width="1"/><line x1="640.82" y1="497.1" x2="675.77" y2="532.05" stroke="#9aa1a9" stroke-width="1"/><line x1="654.82" y1="497.1" x2="675.77" y2="518.05" stroke="#9aa1a9" stroke-width="1"/><line x1="668.82" y1="497.1" x2="675.77" y2="504.05" stroke="#9aa1a9" stroke-width="1"/></g>
<rect x="107.13" y="497.1" width="568.64" height="138.31" fill="none" stroke="#9aa1a9" stroke-width="1.4" stroke-dasharray="7 5"/>
<rect x="295.45" y="553.25" width="192" height="26" fill="#f2efe7"/>
<text x="391.45" y="571.25" font-family="Helvetica, Arial, sans-serif" font-size="13" font-weight="400" letter-spacing="0" fill="#1f2a36" text-anchor="middle">Garden · 38 m²</text>
<rect x="107.13" y="118" width="568.64" height="379.1" fill="#f2efe7"/>
<rect x="114.13" y="125" width="225.97" height="365.1" fill="none" stroke="#1f2a36" stroke-width="1.6"/>
<text x="227.11" y="305.55" font-family="Helvetica, Arial, sans-serif" font-size="12" font-weight="400" letter-spacing="0" fill="#1f2a36" text-anchor="middle">Living &amp; kitchen</text>
<text x="227.11" y="323.55" font-family="Helvetica, Arial, sans-serif" font-size="11" font-weight="400" letter-spacing="0" fill="#9aa1a9" text-anchor="middle">39 m²</text>
<rect x="340.09" y="125" width="186.25" height="171.14" fill="none" stroke="#1f2a36" stroke-width="1.6"/>
<text x="433.22" y="208.57" font-family="Helvetica, Arial, sans-serif" font-size="12" font-weight="400" letter-spacing="0" fill="#1f2a36" text-anchor="middle">Main bedroom</text>
<text x="433.22" y="226.57" font-family="Helvetica, Arial, sans-serif" font-size="11" font-weight="400" letter-spacing="0" fill="#9aa1a9" text-anchor="middle">15 m²</text>
<rect x="526.34" y="125" width="142.43" height="171.14" fill="none" stroke="#1f2a36" stroke-width="1.6"/>
<text x="597.56" y="208.57" font-family="Helvetica, Arial, sans-serif" font-size="12" font-weight="400" letter-spacing="0" fill="#1f2a36" text-anchor="middle">Bedroom 2</text>
<text x="597.56" y="226.57" font-family="Helvetica, Arial, sans-serif" font-size="11" font-weight="400" letter-spacing="0" fill="#9aa1a9" text-anchor="middle">11 m²</text>
<rect x="340.09" y="296.14" width="116" height="193.96" fill="none" stroke="#1f2a36" stroke-width="1.6"/>
<text x="398.1" y="391.12" font-family="Helvetica, Arial, sans-serif" font-size="12" font-weight="400" letter-spacing="0" fill="#1f2a36" text-anchor="middle">Bedroom 3</text>
<text x="398.1" y="409.12" font-family="Helvetica, Arial, sans-serif" font-size="11" font-weight="400" letter-spacing="0" fill="#9aa1a9" text-anchor="middle">11 m²</text>
<rect x="456.1" y="296.14" width="135.34" height="110.83" fill="none" stroke="#1f2a36" stroke-width="1.6"/>
<text x="523.77" y="349.55" font-family="Helvetica, Arial, sans-serif" font-size="12" font-weight="400" letter-spacing="0" fill="#1f2a36" text-anchor="middle">Hall</text>
<text x="523.77" y="367.55" font-family="Helvetica, Arial, sans-serif" font-size="11" font-weight="400" letter-spacing="0" fill="#9aa1a9" text-anchor="middle">7 m²</text>
<rect x="456.1" y="406.97" width="135.34" height="83.12" fill="none" stroke="#1f2a36" stroke-width="1.6"/>
<text x="523.77" y="446.53" font-family="Helvetica, Arial, sans-serif" font-size="12" font-weight="400" letter-spacing="0" fill="#1f2a36" text-anchor="middle">Bath</text>
<text x="523.77" y="464.53" font-family="Helvetica, Arial, sans-serif" font-size="11" font-weight="400" letter-spacing="0" fill="#9aa1a9" text-anchor="middle">5 m²</text>
<rect x="591.44" y="296.14" width="77.34" height="96.98" fill="none" stroke="#1f2a36" stroke-width="1.6"/>
<text x="630.1" y="342.63" font-family="Helvetica, Arial, sans-serif" font-size="12" font-weight="400" letter-spacing="0" fill="#1f2a36" text-anchor="middle">Shower room</text>
<text x="630.1" y="360.63" font-family="Helvetica, Arial, sans-serif" font-size="11" font-weight="400" letter-spacing="0" fill="#9aa1a9" text-anchor="middle">4 m²</text>
<rect x="591.44" y="393.12" width="77.34" height="96.98" fill="none" stroke="#1f2a36" stroke-width="1.6"/>
<text x="630.1" y="439.61" font-family="Helvetica, Arial, sans-serif" font-size="12" font-weight="400" letter-spacing="0" fill="#1f2a36" text-anchor="middle">Utility</text>
<text x="630.1" y="457.61" font-family="Helvetica, Arial, sans-serif" font-size="11" font-weight="400" letter-spacing="0" fill="#9aa1a9" text-anchor="middle">4 m²</text>
<rect x="107.13" y="118" width="568.64" height="379.1" fill="none" stroke="#1f2a36" stroke-width="7"/>
<rect x="197.17" y="492.6" width="117.52" height="9" fill="#f2efe7"/>
<line x1="197.17" y1="497.1" x2="314.69" y2="497.1" stroke="#1f2a36" stroke-width="1.4"/>
<rect x="332.69" y="492.6" width="117.52" height="9" fill="#f2efe7"/>
<line x1="332.69" y1="497.1" x2="450.21" y2="497.1" stroke="#1f2a36" stroke-width="1.4"/>
<rect x="468.21" y="492.6" width="117.52" height="9" fill="#f2efe7"/>
<line x1="468.21" y1="497.1" x2="585.73" y2="497.1" stroke="#1f2a36" stroke-width="1.4"/>
<text x="675.77" y="102" font-family="Helvetica, Arial, sans-serif" font-size="11" font-weight="400" letter-spacing="0" fill="#9aa1a9" text-anchor="end">95 m²</text>
<text x="784.96" y="102" font-family="Helvetica, Arial, sans-serif" font-size="11" font-weight="400" letter-spacing="2" fill="#9aa1a9" text-anchor="start">LOWER LEVEL</text>
<rect x="784.96" y="118" width="307.91" height="246.33" fill="#f2efe7"/>
<rect x="791.96" y="125" width="123.75" height="232.33" fill="none" stroke="#1f2a36" stroke-width="1.6"/>
<text x="853.83" y="239.17" font-family="Helvetica, Arial, sans-serif" font-size="12" font-weight="400" letter-spacing="0" fill="#1f2a36" text-anchor="middle">Workshop</text>
<text x="853.83" y="257.17" font-family="Helvetica, Arial, sans-serif" font-size="11" font-weight="400" letter-spacing="0" fill="#9aa1a9" text-anchor="middle">14 m²</text>
<rect x="915.71" y="125" width="170.16" height="126.73" fill="none" stroke="#1f2a36" stroke-width="1.6"/>
<text x="1000.79" y="186.36" font-family="Helvetica, Arial, sans-serif" font-size="12" font-weight="400" letter-spacing="0" fill="#1f2a36" text-anchor="middle">Store</text>
<text x="1000.79" y="204.36" font-family="Helvetica, Arial, sans-serif" font-size="11" font-weight="400" letter-spacing="0" fill="#9aa1a9" text-anchor="middle">11 m²</text>
<rect x="915.71" y="251.73" width="85.08" height="105.6" fill="none" stroke="#1f2a36" stroke-width="1.6"/>
<text x="958.25" y="302.53" font-family="Helvetica, Arial, sans-serif" font-size="12" font-weight="400" letter-spacing="0" fill="#1f2a36" text-anchor="middle">Stair</text>
<text x="958.25" y="320.53" font-family="Helvetica, Arial, sans-serif" font-size="11" font-weight="400" letter-spacing="0" fill="#9aa1a9" text-anchor="middle">4 m²</text>
<rect x="1000.79" y="251.73" width="85.08" height="105.6" fill="none" stroke="#1f2a36" stroke-width="1.6"/>
<text x="1043.33" y="302.53" font-family="Helvetica, Arial, sans-serif" font-size="12" font-weight="400" letter-spacing="0" fill="#1f2a36" text-anchor="middle">Plant</text>
<text x="1043.33" y="320.53" font-family="Helvetica, Arial, sans-serif" font-size="11" font-weight="400" letter-spacing="0" fill="#9aa1a9" text-anchor="middle">4 m²</text>
<rect x="784.96" y="118" width="307.91" height="246.33" fill="none" stroke="#1f2a36" stroke-width="7"/>
<text x="1092.87" y="102" font-family="Helvetica, Arial, sans-serif" font-size="11" font-weight="400" letter-spacing="0" fill="#9aa1a9" text-anchor="end">33 m²</text>
<g stroke="#1f2a36" fill="none" stroke-width="1.6"><circle cx="1112" cy="78" r="20"/><path d="M 1112 90 L 1112 66 M 1107 73 L 1112 66 L 1117 73"/></g><text x="1112" y="116" font-family="Helvetica, Arial, sans-serif" font-size="12" font-weight="400" letter-spacing="1" fill="#1f2a36" text-anchor="middle">N</text>
<g stroke="#1f2a36" stroke-width="1.2"><line x1="908.53" y1="750" x2="1136" y2="750"/><line x1="908.53" y1="745" x2="908.53" y2="755"/><line x1="954.02" y1="745" x2="954.02" y2="755"/><line x1="999.52" y1="745" x2="999.52" y2="755"/><line x1="1045.01" y1="745" x2="1045.01" y2="755"/><line x1="1090.51" y1="745" x2="1090.51" y2="755"/><line x1="1136" y1="745" x2="1136" y2="755"/></g><text x="908.53" y="772" font-family="Helvetica, Arial, sans-serif" font-size="11" font-weight="400" letter-spacing="0" fill="#9aa1a9" text-anchor="start">0</text><text x="1136" y="772" font-family="Helvetica, Arial, sans-serif" font-size="11" font-weight="400" letter-spacing="0" fill="#9aa1a9" text-anchor="end">5 m</text>
<line x1="64" y1="706" x2="424" y2="706" stroke="#1f2a36" stroke-width="1"/><text x="64" y="732" font-family="Helvetica, Arial, sans-serif" font-size="13" font-weight="600" letter-spacing="2.4" fill="#1f2a36" text-anchor="start">AURELIA RESIDENCES</text><text x="64" y="754" font-family="Helvetica, Arial, sans-serif" font-size="13" font-weight="400" letter-spacing="0" fill="#1f2a36" text-anchor="start">No. 012 — Garden residence</text><text x="64" y="774" font-family="Helvetica, Arial, sans-serif" font-size="12" font-weight="400" letter-spacing="0" fill="#9aa1a9" text-anchor="start">3 bedrooms · 128 m² inside · 38 m² garden · Quay block, garden level</text>
</svg>