<svg xmlns="http://www.w3.org/2000/svg" viewBox="0 0 1200 840" width="1200" height="840" preserveAspectRatio="xMidYMid meet" role="img">
<rect width="1200" height="840" fill="#f2efe7"/>
<text x="253" y="102" font-family="Helvetica, Arial, sans-serif" font-size="11" font-weight="400" letter-spacing="2" fill="#9aa1a9" text-anchor="start">ROOF LEVEL</text>
<g opacity="0.7"><line x1="253" y1="629.43" x2="267" y2="643.43" stroke="#9aa1a9" stroke-width="1"/><line x1="253" y1="615.43" x2="281" y2="643.43" stroke="#9aa1a9" stroke-width="1"/><line x1="253" y1="601.43" x2="295" y2="643.43" stroke="#9aa1a9" stroke-width="1"/><line x1="253" y1="587.43" x2="309" y2="643.43" stroke="#9aa1a9" stroke-width="1"/><line x1="253" y1="573.43" x2="323" y2="643.43" stroke="#9aa1a9" stroke-width="1"/><line x1="253" y1="559.43" x2="337" y2="643.43" stroke="#9aa1a9" stroke-width="1"/><line x1="253" y1="545.43" x2="351" y2="643.43" stroke="#9aa1a9" stroke-width="1"/><line x1="253" y1="531.43" x2="365" y2="643.43" stroke="#9aa1a9" stroke-width="1"/><line x1="261.81" y1="526.23" x2="379" y2="643.43" stroke="#9aa1a9" stroke-width="1"/><line x1="275.81" y1="526.23" x2="393" y2="643.43" stroke="#9aa1a9" stroke-width="1"/><line x1="289.81" y1="526.23" x2="407" y2="643.43" stroke="#9aa1a9" stroke-width="1"/><line x1="303.81" y1="526.23" x2="421" y2="643.43" stroke="#9aa1a9" stroke-width="1"/><line x1="317.81" y1="526.23" x2="435" y2="643.43" stroke="#9aa1a9" stroke-width="1"/><line x1="331.81" y1="526.23" x2="449" y2="643.43" stroke="#9aa1a9" stroke-width="1"/><line x1="345.81" y1="526.23" x2="463" y2="643.43" stroke="#9aa1a9" stroke-width="1"/><line x1="359.81" y1="526.23" x2="477" y2="643.43" stroke="#9aa1a9" stroke-width="1"/><line x1="373.81" y1="526.23" x2="491" y2="643.43" stroke="#9aa1a9" stroke-width="1"/><line x1="387.81" y1="526.23" x2="505" y2="643.43" stroke="#9aa1a9" stroke-width="1"/><line x1="401.81" y1="526.23" x2="519" y2="643.43" stroke="#9aa1a9" stroke-width="1"/><line x1="415.81" y1="526.23" x2="533" y2="643.43" stroke="#9aa1a9" stroke-width="1"/><line x1="429.81" y1="526.23" x2="547" y2="643.43" stroke="#9aa1a9" stroke-width="1"/><line x1="443.81" y1="526.23" x2="561" y2="643.43" stroke="#9aa1a9" stroke-width="1"/><line x1="457.81" y1="526.23" x2="575" y2="643.43" stroke="#9aa1a9" stroke-width="1"/><line x1="471.81" y1="526.23" x2="589" y2="643.43" stroke="#9aa1a9" stroke-width="1"/><line x1="485.81" y1="526.23" x2="603" y2="643.43" stroke="#9aa1a9" stroke-width="1"/><line x1="499.81" y1="526.23" x2="617" y2="643.43" stroke="#9aa1a9" stroke-width="1"/><line x1="513.81" y1="526.23" x2="631" y2="643.43" stroke="#9aa1a9" stroke-width="1"/><line x1="527.81" y1="526.23" x2="645" y2="643.43" stroke="#9aa1a9" stroke-width="1"/><line x1="541.81" y1="526.23" x2="659" y2="643.43" stroke="#9aa1a9" stroke-width="1"/><line x1="555.81" y1="526.23" x2="673" y2="643.43" stroke="#9aa1a9" stroke-width="1"/><line x1="569.81" y1="526.23" x2="687" y2="643.43" stroke="#9aa1a9" stroke-width="1"/><line x1="583.81" y1="526.23" x2="701" y2="643.43" stroke="#9aa1a9" stroke-width="1"/><line x1="597.81" y1="526.23" x2="715" y2="643.43" stroke="#9aa1a9" stroke-width="1"/><line x1="611.81" y1="526.23" x2="729" y2="643.43" stroke="#9aa1a9" stroke-width="1"/><line x1="625.81" y1="526.23" x2="743" y2="643.43" stroke="#9aa1a9" stroke-width="1"/><line x1="639.81" y1="526.23" x2="757" y2="643.43" stroke="#9aa1a9" stroke-width="1"/><line x1="653.81" y1="526.23" x2="771" y2="643.43" stroke="#9aa1a9" stroke-width="1"/><line x1="667.81" y1="526.23" x2="785" y2="643.43" stroke="#9aa1a9" stroke-width="1"/><line x1="681.81" y1="526.23" x2="799" y2="643.43" stroke="#9aa1a9" stroke-width="1"/><line x1="695.81" y1="526.23" x2="813" y2="643.43" stroke="#9aa1a9" stroke-width="1"/><line x1="709.81" y1="526.23" x2="827" y2="643.43" stroke="#9aa1a9" stroke-width="1"/><line x1="723.81" y1="526.23" x2="841" y2="643.43" stroke="#9aa1a9" stroke-width="1"/><line x1="737.81" y1="526.23" x2="855" y2="643.43" stroke="#9aa1a9" stroke-width="1"/><line x1="751.81" y1="526.23" x2="869" y2="643.43" stroke="#9aa1a9" stroke-width="1"/><line x1="765.81" y1="526.23" x2="883" y2="643.43" stroke="#9aa1a9" stroke-width="1"/><line x1="779.81" y1="526.23" x2="897" y2="643.43" stroke="#9aa1a9" stroke-width="1"/><line x1="793.81" y1="526.23" x2="911" y2="643.43" stroke="#9aa1a9" stroke-width="1"/><line x1="807.81" y1="526.23" x2="925" y2="643.43" stroke="#9aa1a9" stroke-width="1"/><line x1="821.81" y1="526.23" x2="939" y2="643.43" stroke="#9aa1a9" stroke-width="1"/><line x1="835.81" y1="526.23" x2="947" y2="637.42" stroke="#9aa1a9" stroke-width="1"/><line x1="849.81" y1="526.23" x2="947" y2="623.42" stroke="#9aa1a9" stroke-width="1"/><line x1="863.81" y1="526.23" x2="947" y2="609.42" stroke="#9aa1a9" stroke-width="1"/><line x1="877.81" y1="526.23" x2="947" y2="595.42" stroke="#9aa1a9" stroke-width="1"/><line x1="891.81" y1="526.23" x2="947" y2="581.42" stroke="#9aa1a9" stroke-width="1"/><line x1="905.81" y1="526.23" x2="947" y2="567.42" stroke="#9aa1a9" stroke-width="1"/><line x1="919.81" y1="526.23" x2="947" y2="553.42" stroke="#9aa1a9" stroke-width="1"/><line x1="933.81" y1="526.23" x2="947" y2="539.42" stroke="#9aa1a9" stroke-width="1"/></g>
<rect x="253" y="526.23" width="694" height="117.2" fill="none" stroke="#9aa1a9" stroke-width="1.4" stroke-dasharray="7 5"/>
<rect x="504" y="571.83" width="192" height="26" fill="#f2efe7"/>
<text x="600" y="589.83" font-family="Helvetica, Arial, sans-serif" font-size="13" font-weight="400" letter-spacing="0" fill="#1f2a36" text-anchor="middle">Solarium · 54 m²</text>
<rect x="253" y="118" width="694" height="408.23" fill="#f2efe7"/>
<rect x="260" y="125" width="274.03" height="394.23" fill="none" stroke="#1f2a36" stroke-width="1.6"/>
<text x="397.02" y="320.12" font-family="Helvetica, Arial, sans-serif" font-size="12" font-weight="400" letter-spacing="0" fill="#1f2a36" text-anchor="middle">Living &amp; kitchen</text>
<text x="397.02" y="338.12" font-family="Helvetica, Arial, sans-serif" font-size="11" font-weight="400" letter-spacing="0" fill="#9aa1a9" text-anchor="middle">69 m²</text>
<rect x="534.03" y="125" width="172.54" height="231.9" fill="none" stroke="#1f2a36" stroke-width="1.6"/>
<text x="620.3" y="238.95" font-family="Helvetica, Arial, sans-serif" font-size="12" font-weight="400" letter-spacing="0" fill="#1f2a36" text-anchor="middle">Main bedroom</text>
<text x="620.3" y="256.95" font-family="Helvetica, Arial, sans-serif" font-size="11" font-weight="400" letter-spacing="0" fill="#9aa1a9" text-anchor="middle">26 m²</text>
<rect x="534.03" y="356.9" width="172.54" height="162.33" fill="none" stroke="#1f2a36" stroke-width="1.6"/>
<text x="620.3" y="436.07" font-family="Helvetica, Arial, sans-serif" font-size="12" font-weight="400" letter-spacing="0" fill="#1f2a36" text-anchor="middle">Bedroom 2</text>
<text x="620.3" y="454.07" font-family="Helvetica, Arial, sans-serif" font-size="11" font-weight="400" letter-spacing="0" fill="#9aa1a9" text-anchor="middle">18 m²</text>
<rect x="706.57" y="125" width="137.94" height="188.55" fill="none" stroke="#1f2a36" stroke-width="1.6"/>
<text x="775.53" y="217.27" font-family="Helvetica, Arial, sans-serif" font-size="12" font-weight="400" letter-spacing="0" fill="#1f2a36" text-anchor="middle">Bedroom 3</text>
<text x="775.53" y="235.27" font-family="Helvetica, Arial, sans-serif" font-size="11" font-weight="400" letter-spacing="0" fill="#9aa1a9" text-anchor="middle">17 m²</text>
<rect x="844.5" y="125" width="95.49" height="188.55" fill="none" stroke="#1f2a36" stroke-width="1.6"/>
<text x="892.25" y="217.27" font-family="Helvetica, Arial, sans-serif" font-size="12" font-weight="400" letter-spacing="0" fill="#1f2a36" text-anchor="middle">Hall</text>
<text x="892.25" y="235.27" font-family="Helvetica, Arial, sans-serif" font-size="11" font-weight="400" letter-spacing="0" fill="#9aa1a9" text-anchor="middle">11 m²</text>
<rect x="706.57" y="313.55" width="136.17" height="117.54" fill="none" stroke="#1f2a36" stroke-width="1.6"/>
<text x="774.65" y="370.31" font-family="Helvetica, Arial, sans-serif" font-size="12" font-weight="400" letter-spacing="0" fill="#1f2a36" text-anchor="middle">Bath</text>
<text x="774.65" y="388.31" font-family="Helvetica, Arial, sans-serif" font-size="11" font-weight="400" letter-spacing="0" fill="#9aa1a9" text-anchor="middle">10 m²</text>
<rect x="706.57" y="431.08" width="136.17" height="88.15" fill="none" stroke="#1f2a36" stroke-width="1.6"/>
<text x="774.65" y="473.16" font-family="Helvetica, Arial, sans-serif" font-size="12" font-weight="400" letter-spacing="0" fill="#1f2a36" text-anchor="middle">Stair to roof</text>
<text x="774.65" y="491.16" font-family="Helvetica, Arial, sans-serif" font-size="11" font-weight="400" letter-spacing="0" fill="#9aa1a9" text-anchor="middle">8 m²</text>
<rect x="842.73" y="313.55" width="97.26" height="102.84" fill="none" stroke="#1f2a36" stroke-width="1.6"/>
<text x="891.37" y="362.97" font-family="Helvetica, Arial, sans-serif" font-size="12" font-weight="400" letter-spacing="0" fill="#1f2a36" text-anchor="middle">Shower room</text>
<text x="891.37" y="380.97" font-family="Helvetica, Arial, sans-serif" font-size="11" font-weight="400" letter-spacing="0" fill="#9aa1a9" text-anchor="middle">6 m²</text>
<rect x="842.73" y="416.39" width="97.26" height="102.84" fill="none" stroke="#1f2a36" stroke-width="1.6"/>
<text x="891.37" y="465.81" font-family="Helvetica, Arial, sans-serif" font-size="12" font-weight="400" letter-spacing="0" fill="#1f2a36" text-anchor="middle">Utility</text>
<text x="891.37" y="483.81" font-family="Helvetica, Arial, sans-serif" font-size="11" font-weight="400" letter-spacing="0" fill="#9aa1a9" text-anchor="middle">6 m²</text>
<rect x="253" y="118" width="694" height="408.23" fill="none" stroke="#1f2a36" stroke-width="7"/>
<rect x="366.86" y="521.73" width="143.43" height="9" fill="#f2efe7"/>
<line x1="366.86" y1="526.23" x2="510.29" y2="526.23" stroke="#1f2a36" stroke-width="1.4"/>
<rect x="528.29" y="521.73" width="143.43" height="9" fill="#f2efe7"/>
<line x1="528.29" y1="526.23" x2="671.71" y2="526.23" stroke="#1f2a36" stroke-width="1.4"/>
<rect x="689.71" y="521.73" width="143.43" height="9" fill="#f2efe7"/>
<line x1="689.71" y1="526.23" x2="833.14" y2="526.23" stroke="#1f2a36" stroke-width="1.4"/>
<text x="947" y="102" font-family="Helvetica, Arial, sans-serif" font-size="11" font-weight="400" letter-spacing="0" fill="#9aa1a9" text-anchor="end">171 m²</text>
<g stroke="#1f2a36" fill="none" stroke-width="1.6"><circle cx="1112" cy="78" r="20"/><path d="M 1112 90 L 1112 66 M 1107 73 L 1112 66 L 1117 73"/></g><text x="1112" y="116" font-family="Helvetica, Arial, sans-serif" font-size="12" font-weight="400" letter-spacing="1" fill="#1f2a36" text-anchor="middle">N</text>
<g stroke="#1f2a36" stroke-width="1.2"><line x1="941.95" y1="750" x2="1136" y2="750"/><line x1="941.95" y1="745" x2="941.95" y2="755"/><line x1="980.76" y1="745" x2="980.76" y2="755"/><line x1="1019.57" y1="745" x2="1019.57" y2="755"/><line x1="1058.38" y1="745" x2="1058.38" y2="755"/><line x1="1097.19" y1="745" x2="1097.19" y2="755"/><line x1="1136" y1="745" x2="1136" y2="755"/></g><text x="941.95" y="772" font-family="Helvetica, Arial, sans-serif" font-size="11" font-weight="400" letter-spacing="0" fill="#9aa1a9" text-anchor="start">0</text><text x="1136" y="772" font-family="Helvetica, Arial, sans-serif" font-size="11" font-weight="400" letter-spacing="0" fill="#9aa1a9" text-anchor="end">5 m</text>
<line x1="64" y1="706" x2="424" y2="706" stroke="#1f2a36" stroke-width="1"/><text x="64" y="732" font-family="Helvetica, Arial, sans-serif" font-size="13" font-weight="600" letter-spacing="2.4" fill="#1f2a36" text-anchor="start">AURELIA RESIDENCES</text><text x="64" y="754" font-family="Helvetica, Arial, sans-serif" font-size="13" font-weight="400" letter-spacing="0" fill="#1f2a36" text-anchor="start">No. 321 — Penthouse residence</text><text x="64" y="774" font-family="Helvetica, Arial, sans-serif" font-size="12" font-weight="400" letter-spacing="0" fill="#9aa1a9" text-anchor="start">3 bedrooms · 171 m² inside · 54 m² solarium · Path block, roof level</text>
</svg>