<svg xmlns="http://www.w3.org/2000/svg" viewBox="0 0 1200 840" width="1200" height="840" preserveAspectRatio="xMidYMid meet" role="img">
<rect width="1200" height="840" fill="#f2efe7"/>
<text x="127.15" y="102" font-family="Helvetica, Arial, sans-serif" font-size="11" font-weight="400" letter-spacing="2" fill="#9aa1a9" text-anchor="start">GARDEN LEVEL</text>
<g opacity="0.7"><line x1="127.15" y1="624.34" x2="141.15" y2="638.34" stroke="#9aa1a9" stroke-width="1"/><line x1="127.15" y1="610.34" x2="155.15" y2="638.34" stroke="#9aa1a9" stroke-width="1"/><line x1="127.15" y1="596.34" x2="169.15" y2="638.34" stroke="#9aa1a9" stroke-width="1"/><line x1="127.15" y1="582.34" x2="183.15" y2="638.34" stroke="#9aa1a9" stroke-width="1"/><line x1="127.15" y1="568.34" x2="197.15" y2="638.34" stroke="#9aa1a9" stroke-width="1"/><line x1="127.15" y1="554.34" x2="211.15" y2="638.34" stroke="#9aa1a9" stroke-width="1"/><line x1="127.15" y1="540.34" x2="225.15" y2="638.34" stroke="#9aa1a9" stroke-width="1"/><line x1="127.15" y1="526.34" x2="239.15" y2="638.34" stroke="#9aa1a9" stroke-width="1"/><line x1="127.15" y1="512.34" x2="253.15" y2="638.34" stroke="#9aa1a9" stroke-width="1"/><line x1="127.15" y1="498.34" x2="267.15" y2="638.34" stroke="#9aa1a9" stroke-width="1"/><line x1="127.15" y1="484.34" x2="281.15" y2="638.34" stroke="#9aa1a9" stroke-width="1"/><line x1="139.12" y1="482.31" x2="295.15" y2="638.34" stroke="#9aa1a9" stroke-width="1"/><line x1="153.12" y1="482.31" x2="309.15" y2="638.34" stroke="#9aa1a9" stroke-width="1"/><line x1="167.12" y1="482.31" x2="323.15" y2="638.34" stroke="#9aa1a9" stroke-width="1"/><line x1="181.12" y1="482.31" x2="337.15" y2="638.34" stroke="#9aa1a9" stroke-width="1"/><line x1="195.12" y1="482.31" x2="351.15" y2="638.34" stroke="#9aa1a9" stroke-width="1"/><line x1="209.12" y1="482.31" x2="365.15" y2="638.34" stroke="#9aa1a9" stroke-width="1"/><line x1="223.12" y1="482.31" x2="379.15" y2="638.34" stroke="#9aa1a9" stroke-width="1"/><line x1="237.12" y1="482.31" x2="393.15" y2="638.34" stroke="#9aa1a9" stroke-width="1"/><line x1="251.12" y1="482.31" x2="407.15" y2="638.34" stroke="#9aa1a9" stroke-width="1"/><line x1="265.12" y1="482.31" x2="421.15" y2="638.34" stroke="#9aa1a9" stroke-width="1"/><line x1="279.12" y1="482.31" x2="435.15" y2="638.34" stroke="#9aa1a9" stroke-width="1"/><line x1="293.12" y1="482.31" x2="449.15" y2="638.34" stroke="#9aa1a9" stroke-width="1"/><line x1="307.12" y1="482.31" x2="463.15" y2="638.34" stroke="#9aa1a9" stroke-width="1"/><line x1="321.12" y1="482.31" x2="477.15" y2="638.34" stroke="#9aa1a9" stroke-width="1"/><line x1="335.12" y1="482.31" x2="491.15" y2="638.34" stroke="#9aa1a9" stroke-width="1"/><line x1="349.12" y1="482.31" x2="505.15" y2="638.34" stroke="#9aa1a9" stroke-width="1"/><line x1="363.12" y1="482.31" x2="519.15" y2="638.34" stroke="#9aa1a9" stroke-width="1"/><line x1="377.12" y1="482.31" x2="533.15" y2="638.34" stroke="#9aa1a9" stroke-width="1"/><line x1="391.12" y1="482.31" x2="547.15" y2="638.34" stroke="#9aa1a9" stroke-width="1"/><line x1="405.12" y1="482.31" x2="561.15" y2="638.34" stroke="#9aa1a9" stroke-width="1"/><line x1="419.12" y1="482.31" x2="575.15" y2="638.34" stroke="#9aa1a9" stroke-width="1"/><line x1="433.12" y1="482.31" x2="589.15" y2="638.34" stroke="#9aa1a9" stroke-width="1"/><line x1="447.12" y1="482.31" x2="603.15" y2="638.34" stroke="#9aa1a9" stroke-width="1"/><line x1="461.12" y1="482.31" x2="617.15" y2="638.34" stroke="#9aa1a9" stroke-width="1"/><line x1="475.12" y1="482.31" x2="631.15" y2="638.34" stroke="#9aa1a9" stroke-width="1"/><line x1="489.12" y1="482.31" x2="645.15" y2="638.34" stroke="#9aa1a9" stroke-width="1"/><line x1="503.12" y1="482.31" x2="659.15" y2="638.34" stroke="#9aa1a9" stroke-width="1"/><line x1="517.12" y1="482.31" x2="673.15" y2="638.34" stroke="#9aa1a9" stroke-width="1"/><line x1="531.12" y1="482.31" x2="673.62" y2="624.8" stroke="#9aa1a9" stroke-width="1"/><line x1="545.12" y1="482.31" x2="673.62" y2="610.8" stroke="#9aa1a9" stroke-width="1"/><line x1="559.12" y1="482.31" x2="673.62" y2="596.8" stroke="#9aa1a9" stroke-width="1"/><line x1="573.12" y1="482.31" x2="673.62" y2="582.8" stroke="#9aa1a9" stroke-width="1"/><line x1="587.12" y1="482.31" x2="673.62" y2="568.8" stroke="#9aa1a9" stroke-width="1"/><line x1="601.12" y1="482.31" x2="673.62" y2="554.8" stroke="#9aa1a9" stroke-width="1"/><line x1="615.12" y1="482.31" x2="673.62" y2="540.8" stroke="#9aa1a9" stroke-width="1"/><line x1="629.12" y1="482.31" x2="673.62" y2="526.8" stroke="#9aa1a9" stroke-width="1"/><line x1="643.12" y1="482.31" x2="673.62" y2="512.8" stroke="#9aa1a9" stroke-width="1"/><line x1="657.12" y1="482.31" x2="673.62" y2="498.8" stroke="#9aa1a9" stroke-width="1"/><line x1="671.12" y1="482.31" x2="673.62" y2="484.8" stroke="#9aa1a9" stroke-width="1"/></g>
<rect x="127.15" y="482.31" width="546.47" height="156.02" fill="none" stroke="#9aa1a9" stroke-width="1.4" stroke-dasharray="7 5"/>
<rect x="304.38" y="547.32" width="192" height="26" fill="#f2efe7"/>
<text x="400.38" y="565.32" font-family="Helvetica, Arial, sans-serif" font-size="13" font-weight="400" letter-spacing="0" fill="#1f2a36" text-anchor="middle">Garden · 46 m²</text>
<rect x="127.15" y="118" width="546.47" height="364.31" fill="#f2efe7"/>
<rect x="134.15" y="125" width="216.93" height="350.31" fill="none" stroke="#1f2a36" stroke-width="1.6"/>
<text x="242.62" y="298.16" font-family="Helvetica, Arial, sans-serif" font-size="12" font-weight="400" letter-spacing="0" fill="#1f2a36" text-anchor="middle">Living &amp; kitchen</text>
<text x="242.62" y="316.16" font-family="Helvetica, Arial, sans-serif" font-size="11" font-weight="400" letter-spacing="0" fill="#9aa1a9" text-anchor="middle">40 m²</text>
<rect x="351.08" y="125" width="178.8" height="164.21" fill="none" stroke="#1f2a36" stroke-width="1.6"/>
<text x="440.48" y="205.1" font-family="Helvetica, Arial, sans-serif" font-size="12" font-weight="400" letter-spacing="0" fill="#1f2a36" text-anchor="middle">Main bedroom</text>
<text x="440.48" y="223.1" font-family="Helvetica, Arial, sans-serif" font-size="11" font-weight="400" letter-spacing="0" fill="#9aa1a9" text-anchor="middle">15 m²</text>
<rect x="529.89" y="125" width="136.73" height="164.21" fill="none" stroke="#1f2a36" stroke-width="1.6"/>
<text x="598.25" y="205.1" font-family="Helvetica, Arial, sans-serif" font-size="12" font-weight="400" letter-spacing="0" fill="#1f2a36" text-anchor="middle">Bedroom 2</text>
<text x="598.25" y="223.1" font-family="Helvetica, Arial, sans-serif" font-size="11" font-weight="400" letter-spacing="0" fill="#9aa1a9" text-anchor="middle">12 m²</text>
<rect x="351.08" y="289.21" width="111.37" height="186.1" fill="none" stroke="#1f2a36" stroke-width="1.6"/>
<text x="406.76" y="380.26" font-family="Helvetica, Arial, sans-serif" font-size="12" font-weight="400" letter-spacing="0" fill="#1f2a36" text-anchor="middle">Bedroom 3</text>
<text x="406.76" y="398.26" font-family="Helvetica, Arial, sans-serif" font-size="11" font-weight="400" letter-spacing="0" fill="#9aa1a9" text-anchor="middle">11 m²</text>
<rect x="462.45" y="289.21" width="129.93" height="106.34" fill="none" stroke="#1f2a36" stroke-width="1.6"/>
<text x="527.41" y="340.38" font-family="Helvetica, Arial, sans-serif" font-size="12" font-weight="400" letter-spacing="0" fill="#1f2a36" text-anchor="middle">Hall</text>
<text x="527.41" y="358.38" font-family="Helvetica, Arial, sans-serif" font-size="11" font-weight="400" letter-spacing="0" fill="#9aa1a9" text-anchor="middle">7 m²</text>
<rect x="462.45" y="395.55" width="129.93" height="79.76" fill="none" stroke="#1f2a36" stroke-width="1.6"/>
<text x="527.41" y="433.43" font-family="Helvetica, Arial, sans-serif" font-size="12" font-weight="400" letter-spacing="0" fill="#1f2a36" text-anchor="middle">Bath</text>
<text x="527.41" y="451.43" font-family="Helvetica, Arial, sans-serif" font-size="11" font-weight="400" letter-spacing="0" fill="#9aa1a9" text-anchor="middle">5 m²</text>
<rect x="592.37" y="289.21" width="74.24" height="93.05" fill="none" stroke="#1f2a36" stroke-width="1.6"/>
<text x="629.5" y="333.73" font-family="Helvetica, Arial, sans-serif" font-size="12" font-weight="400" letter-spacing="0" fill="#1f2a36" text-anchor="middle">Shower room</text>
<text x="629.5" y="351.73" font-family="Helvetica, Arial, sans-serif" font-size="11" font-weight="400" letter-spacing="0" fill="#9aa1a9" text-anchor="middle">4 m²</text>
<rect x="592.37" y="382.26" width="74.24" height="93.05" fill="none" stroke="#1f2a36" stroke-width="1.6"/>
<text x="629.5" y="426.79" font-family="Helvetica, Arial, sans-serif" font-size="12" font-weight="400" letter-spacing="0" fill="#1f2a36" text-anchor="middle">Utility</text>
<text x="629.5" y="444.79" font-family="Helvetica, Arial, sans-serif" font-size="11" font-weight="400" letter-spacing="0" fill="#9aa1a9" text-anchor="middle">4 m²</text>
<rect x="127.15" y="118" width="546.47" height="364.31" fill="none" stroke="#1f2a36" stroke-width="7"/>
<rect x="212.98" y="477.81" width="112.94" height="9" fill="#f2efe7"/>
<line x1="212.98" y1="482.31" x2="325.92" y2="482.31" stroke="#1f2a36" stroke-width="1.4"/>
<rect x="343.92" y="477.81" width="112.94" height="9" fill="#f2efe7"/>
<line x1="343.92" y1="482.31" x2="456.85" y2="482.31" stroke="#1f2a36" stroke-width="1.4"/>
<rect x="474.85" y="477.81" width="112.94" height="9" fill="#f2efe7"/>
<line x1="474.85" y1="482.31" x2="587.79" y2="482.31" stroke="#1f2a36" stroke-width="1.4"/>
<text x="673.62" y="102" font-family="Helvetica, Arial, sans-serif" font-size="11" font-weight="400" letter-spacing="0" fill="#9aa1a9" text-anchor="end">98 m²</text>
<text x="776.94" y="102" font-family="Helvetica, Arial, sans-serif" font-size="11" font-weight="400" letter-spacing="2" fill="#9aa1a9" text-anchor="start">LOWER LEVEL</text>
<rect x="776.94" y="118" width="295.91" height="236.72" fill="#f2efe7"/>
<rect x="783.94" y="125" width="118.7" height="222.72" fill="none" stroke="#1f2a36" stroke-width="1.6"/>
<text x="843.29" y="234.36" font-family="Helvetica, Arial, sans-serif" font-size="12" font-weight="400" letter-spacing="0" fill="#1f2a36" text-anchor="middle">Workshop</text>
<text x="843.29" y="252.36" font-family="Helvetica, Arial, sans-serif" font-size="11" font-weight="400" letter-spacing="0" fill="#9aa1a9" text-anchor="middle">14 m²</text>
<rect x="902.64" y="125" width="163.21" height="121.49" fill="none" stroke="#1f2a36" stroke-width="1.6"/>
<text x="984.25" y="183.74" font-family="Helvetica, Arial, sans-serif" font-size="12" font-weight="400" letter-spacing="0" fill="#1f2a36" text-anchor="middle">Store</text>
<text x="984.25" y="201.74" font-family="Helvetica, Arial, sans-serif" font-size="11" font-weight="400" letter-spacing="0" fill="#9aa1a9" text-anchor="middle">11 m²</text>
<rect x="902.64" y="246.49" width="81.6" height="101.24" fill="none" stroke="#1f2a36" stroke-width="1.6"/>
<text x="943.44" y="295.11" font-family="Helvetica, Arial, sans-serif" font-size="12" font-weight="400" letter-spacing="0" fill="#1f2a36" text-anchor="middle">Stair</text>
<text x="943.44" y="313.11" font-family="Helvetica, Arial, sans-serif" font-size="11" font-weight="400" letter-spacing="0" fill="#9aa1a9" text-anchor="middle">5 m²</text>
<rect x="984.25" y="246.49" width="81.6" height="101.24" fill="none" stroke="#1f2a36" stroke-width="1.6"/>
<text x="1025.05" y="295.11" font-family="Helvetica, Arial, sans-serif" font-size="12" font-weight="400" letter-spacing="0" fill="#1f2a36" text-anchor="middle">Plant</text>
<text x="1025.05" y="313.11" font-family="Helvetica, Arial, sans-serif" font-size="11" font-weight="400" letter-spacing="0" fill="#9aa1a9" text-anchor="middle">5 m²</text>
<rect x="776.94" y="118" width="295.91" height="236.72" fill="none" stroke="#1f2a36" stroke-width="7"/>
<text x="1072.85" y="102" font-family="Helvetica, Arial, sans-serif" font-size="11" font-weight="400" letter-spacing="0" fill="#9aa1a9" text-anchor="end">34 m²</text>
<g stroke="#1f2a36" fill="none" stroke-width="1.6"><circle cx="1112" cy="78" r="20"/><path d="M 1112 90 L 1112 66 M 1107 73 L 1112 66 L 1117 73"/></g><text x="1112" y="116" font-family="Helvetica, Arial, sans-serif" font-size="12" font-weight="400" letter-spacing="1" fill="#1f2a36" text-anchor="middle">N</text>
<g stroke="#1f2a36" stroke-width="1.2"><line x1="920.74" y1="750" x2="1136" y2="750"/><line x1="920.74" y1="745" x2="920.74" y2="755"/><line x1="963.79" y1="745" x2="963.79" y2="755"/><line x1="1006.84" y1="745" x2="1006.84" y2="755"/><line x1="1049.89" y1="745" x2="1049.89" y2="755"/><line x1="1092.95" y1="745" x2="1092.95" y2="755"/><line x1="1136" y1="745" x2="1136" y2="755"/></g><text x="920.74" y="772" font-family="Helvetica, Arial, sans-serif" font-size="11" font-weight="400" letter-spacing="0" fill="#9aa1a9" text-anchor="start">0</text><text x="1136" y="772" font-family="Helvetica, Arial, sans-serif" font-size="11" font-weight="400" letter-spacing="0" fill="#9aa1a9" text-anchor="end">5 m</text>
<line x1="64" y1="706" x2="424" y2="706" stroke="#1f2a36" stroke-width="1"/><text x="64" y="732" font-family="Helvetica, Arial, sans-serif" font-size="13" font-weight="600" letter-spacing="2.4" fill="#1f2a36" text-anchor="start">AURELIA RESIDENCES</text><text x="64" y="754" font-family="Helvetica, Arial, sans-serif" font-size="13" font-weight="400" letter-spacing="0" fill="#1f2a36" text-anchor="start">No. 011 — Garden residence</text><text x="64" y="774" font-family="Helvetica, Arial, sans-serif" font-size="12" font-weight="400" letter-spacing="0" fill="#9aa1a9" text-anchor="start">3 bedrooms · 132 m² inside · 46 m² garden · Quay block, garden level</text>
</svg>